# xmcd CD database file
#
# Track frame offsets:
#	225
#	17772
#	38647
#	53143
#	70173
#	91144
#	109437
#	124988
#	139433
#	156241
#	171371
#	189579
#	209613
#	232503
#	249485
#	265700
#	287335
#	304371
#	313218
#
# Disc length: 4359 seconds
#
# Revision: 0
# Processed by: cddbd v1.5.1PL2 Copyright (c) Steve Scherf et al.
# Submitted via: CDex 1.51
#
DISCID=15110413
DTITLE=Various Artist - I'm 2003  volume1
DYEAR=2003
DGENRE=Pop Rock
TTITLE0=Theory of a Deadman  -  make up your mind (acoustic guitar version)
TTITLE1=The Tragically Hip  -  The darkest one
TTITLE2=Headstones  -  Tiny Teddy
TTITLE3=Counting Crows (feat.Vanessa Carlton)  -  Big yellow taxi
TTITLE4=Wendy Lands  -  true and tender
TTITLE5=Jully Black (feat.Saukrates)  -  between ma and u (clean version)
TTITLE6=The All-American Rejects  -  swing,swing (radio edit remix)
TTITLE7=AFI  -  girl's not grey (album version)
TTITLE8=Finch  -  what it is to burn  (radio mix)
TTITLE9=Boomkat  -  The Wreckoning  (radio edit)
TTITLE10=No Dubt  -  running
TTITLE11=Sheryl Crow  -  c'mon c'mon  (Pro Tools mix)
TTITLE12=Dana Glover  -  thinking over (album version)
TTITLE13=K0Ci and Jojo  -  it's me (radio edit)
TTITLE14=Daniel Bedingfield  -  James Dean (i wanna know)
TTITLE15=Eminem  -  Superman  (clean radio edit)
TTITLE16=50 Cent  -  in da club (clean)
TTITLE17=The D4  -  get loose
TTITLE18=Wisconsin  -  overblown
EXTD=YEAR: 2003
EXTT0=
EXTT1=
EXTT2=
EXTT3=
EXTT4=
EXTT5=
EXTT6=
EXTT7=
EXTT8=
EXTT9=
EXTT10=
EXTT11=
EXTT12=
EXTT13=
EXTT14=
EXTT15=
EXTT16=
EXTT17=
EXTT18=
PLAYORDER=
